<mxfile host="app.diagrams.net" modified="2023-10-22T21:28:04.175Z" agent="Mozilla/5.0 (X11; Linux x86_64) AppleWebKit/537.36 (KHTML, like Gecko) Chrome/118.0.0.0 Safari/537.36" etag="ac6FYDomH1hCc29TGVw9" version="22.0.6" type="github">
  <diagram name="Page-1" id="e7e014a7-5840-1c2e-5031-d8a46d1fe8dd">
    <mxGraphModel dx="972" dy="516" grid="1" gridSize="10" guides="1" tooltips="1" connect="1" arrows="1" fold="1" page="1" pageScale="1" pageWidth="1169" pageHeight="826" background="none" math="0" shadow="0">
      <root>
        <mxCell id="0" />
        <mxCell id="1" parent="0" />
        <mxCell id="2" value="User" style="swimlane;whiteSpace=wrap" parent="1" vertex="1">
          <mxGeometry x="80" y="128" width="280" height="642" as="geometry" />
        </mxCell>
        <mxCell id="5" value="" style="ellipse;shape=startState;fillColor=#000000;strokeColor=#ff0000;" parent="2" vertex="1">
          <mxGeometry x="110" y="32" width="30" height="30" as="geometry" />
        </mxCell>
        <mxCell id="6" value="" style="edgeStyle=elbowEdgeStyle;elbow=horizontal;verticalAlign=bottom;endArrow=open;endSize=8;strokeColor=#FF0000;endFill=1;rounded=0" parent="2" source="5" target="7" edge="1">
          <mxGeometry x="100" y="40" as="geometry">
            <mxPoint x="115" y="110" as="targetPoint" />
          </mxGeometry>
        </mxCell>
        <mxCell id="7" value="Saisir le code USSD" style="" parent="2" vertex="1">
          <mxGeometry x="60" y="72" width="110" height="50" as="geometry" />
        </mxCell>
        <mxCell id="8" value="il selectionne &#xa;incidents" style="" parent="2" vertex="1">
          <mxGeometry x="60" y="152" width="110" height="50" as="geometry" />
        </mxCell>
        <mxCell id="10" value="message de refus" style="" parent="2" vertex="1">
          <mxGeometry x="60" y="242" width="110" height="50" as="geometry" />
        </mxCell>
        <mxCell id="31" value="critical&#xa;section" style="shape=note;whiteSpace=wrap;size=17" parent="2" vertex="1">
          <mxGeometry x="130" y="520" width="100" height="50" as="geometry" />
        </mxCell>
        <mxCell id="R73__cvtc8PIlCTp7sAW-79" value="message &#xa;d&#39;acceptation" style="" vertex="1" parent="2">
          <mxGeometry x="70" y="342" width="110" height="50" as="geometry" />
        </mxCell>
        <mxCell id="3" value="System" style="swimlane;whiteSpace=wrap" parent="1" vertex="1">
          <mxGeometry x="360" y="128" width="280" height="642" as="geometry" />
        </mxCell>
        <mxCell id="15" value="le systeme &#xa;affiche la liste des" style="" parent="3" vertex="1">
          <mxGeometry x="30" y="112" width="100" height="40" as="geometry" />
        </mxCell>
        <mxCell id="21" value="Verificcaton du &#xa;seuil de risque" style="rhombus;fillColor=#ffffc0;strokeColor=#ff0000;" parent="3" vertex="1">
          <mxGeometry x="50" y="200" width="115" height="70" as="geometry" />
        </mxCell>
        <mxCell id="32" value="" style="endArrow=none;strokeColor=#FF0000;endFill=0;rounded=0;dashed=1" parent="3" target="31" edge="1">
          <mxGeometry relative="1" as="geometry">
            <mxPoint x="130" y="537.952380952381" as="sourcePoint" />
          </mxGeometry>
        </mxCell>
        <mxCell id="R73__cvtc8PIlCTp7sAW-51" value="" style="whiteSpace=wrap;strokeColor=#FF0000;fillColor=#FF0000" vertex="1" parent="3">
          <mxGeometry x="250" y="373.5" width="5" height="45" as="geometry" />
        </mxCell>
        <mxCell id="R73__cvtc8PIlCTp7sAW-43" value="yes" style="edgeStyle=elbowEdgeStyle;elbow=horizontal;align=left;verticalAlign=bottom;endArrow=open;endSize=8;strokeColor=#FF0000;endFill=1;rounded=0;entryX=0.414;entryY=0.085;entryDx=0;entryDy=0;entryPerimeter=0;" edge="1" parent="3" source="21" target="R73__cvtc8PIlCTp7sAW-58">
          <mxGeometry x="-1" relative="1" as="geometry">
            <mxPoint x="30" y="302" as="targetPoint" />
            <Array as="points">
              <mxPoint x="200" y="302" />
            </Array>
            <mxPoint x="200" y="302" as="sourcePoint" />
          </mxGeometry>
        </mxCell>
        <mxCell id="R73__cvtc8PIlCTp7sAW-58" value="si hospitalise" style="rhombus;fillColor=#ffffc0;strokeColor=#ff0000;" vertex="1" parent="3">
          <mxGeometry x="60" y="285" width="125" height="60" as="geometry" />
        </mxCell>
        <mxCell id="R73__cvtc8PIlCTp7sAW-60" value="yes" style="edgeStyle=elbowEdgeStyle;elbow=horizontal;align=left;verticalAlign=bottom;endArrow=open;endSize=8;strokeColor=#FF0000;endFill=1;rounded=0;exitX=1;exitY=0.5;exitDx=0;exitDy=0;" edge="1" parent="3" source="R73__cvtc8PIlCTp7sAW-58">
          <mxGeometry x="-1" relative="1" as="geometry">
            <mxPoint x="250" y="392" as="targetPoint" />
            <Array as="points">
              <mxPoint x="210" y="312" />
            </Array>
            <mxPoint x="200" y="382" as="sourcePoint" />
          </mxGeometry>
        </mxCell>
        <mxCell id="33" value="Confirmation du&#xa; medecin ou admin" style="" parent="3" vertex="1">
          <mxGeometry x="130" y="522" width="110" height="50" as="geometry" />
        </mxCell>
        <mxCell id="38" value="" style="ellipse;shape=endState;fillColor=#000000;strokeColor=#ff0000" parent="3" vertex="1">
          <mxGeometry x="145" y="592" width="30" height="30" as="geometry" />
        </mxCell>
        <mxCell id="R73__cvtc8PIlCTp7sAW-63" value="" style="endArrow=open;strokeColor=#FF0000;endFill=1;rounded=0" edge="1" parent="3">
          <mxGeometry relative="1" as="geometry">
            <mxPoint x="159.5" y="542" as="sourcePoint" />
            <mxPoint x="159.5" y="592" as="targetPoint" />
          </mxGeometry>
        </mxCell>
        <mxCell id="R73__cvtc8PIlCTp7sAW-68" style="edgeStyle=orthogonalEdgeStyle;rounded=0;orthogonalLoop=1;jettySize=auto;html=1;exitX=1;exitY=0.75;exitDx=0;exitDy=0;entryX=0.75;entryY=0;entryDx=0;entryDy=0;" edge="1" parent="3" source="R73__cvtc8PIlCTp7sAW-51" target="R73__cvtc8PIlCTp7sAW-51">
          <mxGeometry relative="1" as="geometry" />
        </mxCell>
        <mxCell id="R73__cvtc8PIlCTp7sAW-77" value="si  retrait des fonds" style="rhombus;fillColor=#ffffc0;strokeColor=#ff0000;" vertex="1" parent="3">
          <mxGeometry x="50" y="372" width="125" height="60" as="geometry" />
        </mxCell>
        <mxCell id="20" value="no" style="endArrow=open;strokeColor=#FF0000;endFill=1;rounded=0;exitX=0;exitY=0.5;exitDx=0;exitDy=0;entryX=0.5;entryY=0;entryDx=0;entryDy=0;" parent="3" source="R73__cvtc8PIlCTp7sAW-58" target="R73__cvtc8PIlCTp7sAW-77" edge="1">
          <mxGeometry relative="1" as="geometry">
            <mxPoint x="50" y="372" as="targetPoint" />
          </mxGeometry>
        </mxCell>
        <mxCell id="4" value="admin" style="swimlane;whiteSpace=wrap" parent="1" vertex="1">
          <mxGeometry x="640" y="128" width="280" height="642" as="geometry" />
        </mxCell>
        <mxCell id="R73__cvtc8PIlCTp7sAW-56" value="notifie admin" style="" vertex="1" parent="4">
          <mxGeometry x="120" y="372" width="110" height="50" as="geometry" />
        </mxCell>
        <mxCell id="R73__cvtc8PIlCTp7sAW-54" value="yes" style="edgeStyle=elbowEdgeStyle;elbow=horizontal;align=left;verticalAlign=bottom;endArrow=open;endSize=8;strokeColor=#FF0000;endFill=1;rounded=0;entryX=0;entryY=0.5;entryDx=0;entryDy=0;" edge="1" parent="4" target="R73__cvtc8PIlCTp7sAW-57">
          <mxGeometry x="-1" relative="1" as="geometry">
            <mxPoint x="150" y="372" as="targetPoint" />
            <Array as="points">
              <mxPoint x="60" y="502" />
            </Array>
            <mxPoint x="-30" y="402" as="sourcePoint" />
          </mxGeometry>
        </mxCell>
        <mxCell id="R73__cvtc8PIlCTp7sAW-52" value="yes" style="edgeStyle=elbowEdgeStyle;elbow=horizontal;align=left;verticalAlign=bottom;endArrow=open;endSize=8;strokeColor=#FF0000;endFill=1;rounded=0;exitX=1;exitY=0.75;exitDx=0;exitDy=0;entryX=0;entryY=0.75;entryDx=0;entryDy=0;" edge="1" parent="4" target="R73__cvtc8PIlCTp7sAW-56">
          <mxGeometry x="-1" relative="1" as="geometry">
            <mxPoint x="85" y="325" as="targetPoint" />
            <Array as="points">
              <mxPoint x="45" y="375" />
              <mxPoint x="65" y="345" />
            </Array>
            <mxPoint x="-20" y="380.25" as="sourcePoint" />
          </mxGeometry>
        </mxCell>
        <mxCell id="R73__cvtc8PIlCTp7sAW-73" value="si hospitalise" style="rhombus;fillColor=#ffffc0;strokeColor=#ff0000;" vertex="1" parent="4">
          <mxGeometry x="30" y="432" width="110" height="60" as="geometry" />
        </mxCell>
        <mxCell id="19" value="" style="endArrow=open;strokeColor=#FF0000;endFill=1;rounded=0;entryX=0.5;entryY=0;entryDx=0;entryDy=0;" parent="4" source="R73__cvtc8PIlCTp7sAW-56" target="R73__cvtc8PIlCTp7sAW-73" edge="1">
          <mxGeometry relative="1" as="geometry">
            <mxPoint x="69.99555555555543" y="412" as="sourcePoint" />
            <mxPoint x="78.88444444444434" y="452" as="targetPoint" />
          </mxGeometry>
        </mxCell>
        <mxCell id="R73__cvtc8PIlCTp7sAW-76" value="" style="ellipse;shape=endState;fillColor=#000000;strokeColor=#ff0000" vertex="1" parent="4">
          <mxGeometry x="200" y="462" width="30" height="30" as="geometry" />
        </mxCell>
        <mxCell id="9" value="" style="endArrow=open;strokeColor=#FF0000;endFill=1;rounded=0;entryX=0;entryY=0.75;entryDx=0;entryDy=0;" parent="1" source="7" target="15" edge="1">
          <mxGeometry relative="1" as="geometry" />
        </mxCell>
        <mxCell id="17" value="" style="endArrow=open;strokeColor=#FF0000;endFill=1;rounded=0;entryX=1;entryY=0.5;entryDx=0;entryDy=0;" parent="1" source="15" target="8" edge="1">
          <mxGeometry relative="1" as="geometry" />
        </mxCell>
        <mxCell id="11" value="" style="endArrow=open;strokeColor=#FF0000;endFill=1;rounded=0;entryX=0.5;entryY=0;entryDx=0;entryDy=0;" parent="1" source="8" target="21" edge="1">
          <mxGeometry relative="1" as="geometry" />
        </mxCell>
        <mxCell id="R73__cvtc8PIlCTp7sAW-44" value="medecin" style="swimlane;whiteSpace=wrap" vertex="1" parent="1">
          <mxGeometry x="920" y="128" width="280" height="642" as="geometry" />
        </mxCell>
        <mxCell id="R73__cvtc8PIlCTp7sAW-57" value="notifie le &#xa;medecin" style="" vertex="1" parent="R73__cvtc8PIlCTp7sAW-44">
          <mxGeometry x="90" y="342" width="110" height="50" as="geometry" />
        </mxCell>
        <mxCell id="R73__cvtc8PIlCTp7sAW-64" value="si hospitalise" style="rhombus;fillColor=#ffffc0;strokeColor=#ff0000;" vertex="1" parent="R73__cvtc8PIlCTp7sAW-44">
          <mxGeometry x="55" y="432" width="145" height="88" as="geometry" />
        </mxCell>
        <mxCell id="R73__cvtc8PIlCTp7sAW-66" value="" style="ellipse;shape=endState;fillColor=#000000;strokeColor=#ff0000" vertex="1" parent="R73__cvtc8PIlCTp7sAW-44">
          <mxGeometry x="220" y="552" width="30" height="30" as="geometry" />
        </mxCell>
        <mxCell id="R73__cvtc8PIlCTp7sAW-67" value="" style="endArrow=open;strokeColor=#FF0000;endFill=1;rounded=0;exitX=0.364;exitY=1;exitDx=0;exitDy=0;exitPerimeter=0;" edge="1" parent="R73__cvtc8PIlCTp7sAW-44" source="R73__cvtc8PIlCTp7sAW-57" target="R73__cvtc8PIlCTp7sAW-64">
          <mxGeometry relative="1" as="geometry">
            <mxPoint x="-13" y="302" as="sourcePoint" />
            <mxPoint x="200" y="306" as="targetPoint" />
          </mxGeometry>
        </mxCell>
        <mxCell id="23" value="no" style="edgeStyle=elbowEdgeStyle;elbow=horizontal;align=left;verticalAlign=top;endArrow=open;endSize=8;strokeColor=#FF0000;endFill=1;rounded=0;entryX=1;entryY=0.5;entryDx=0;entryDy=0;" parent="1" source="21" target="10" edge="1">
          <mxGeometry x="-1" relative="1" as="geometry">
            <mxPoint x="310" y="450" as="targetPoint" />
          </mxGeometry>
        </mxCell>
        <mxCell id="R73__cvtc8PIlCTp7sAW-46" value="yes" style="edgeStyle=none;strokeColor=#FF0000;endArrow=open;endFill=1;rounded=0;entryX=0.896;entryY=-0.03;entryDx=0;entryDy=0;entryPerimeter=0;exitX=0;exitY=0.5;exitDx=0;exitDy=0;" edge="1" parent="1" target="33" source="R73__cvtc8PIlCTp7sAW-64">
          <mxGeometry width="100" height="100" relative="1" as="geometry">
            <mxPoint x="970" y="600" as="sourcePoint" />
            <mxPoint x="1010" y="557.5" as="targetPoint" />
            <Array as="points">
              <mxPoint x="790" y="670" />
            </Array>
          </mxGeometry>
        </mxCell>
        <mxCell id="R73__cvtc8PIlCTp7sAW-65" value="no" style="edgeStyle=none;strokeColor=#FF0000;endArrow=open;endFill=1;rounded=0;exitX=1;exitY=0.5;exitDx=0;exitDy=0;" edge="1" parent="1" source="R73__cvtc8PIlCTp7sAW-64">
          <mxGeometry width="100" height="100" relative="1" as="geometry">
            <mxPoint x="980" y="610" as="sourcePoint" />
            <mxPoint x="1150" y="690" as="targetPoint" />
          </mxGeometry>
        </mxCell>
        <mxCell id="R73__cvtc8PIlCTp7sAW-74" value="yes" style="endArrow=open;strokeColor=#FF0000;endFill=1;rounded=0;exitX=0;exitY=0.5;exitDx=0;exitDy=0;entryX=0.64;entryY=-0.002;entryDx=0;entryDy=0;entryPerimeter=0;" edge="1" parent="1" source="R73__cvtc8PIlCTp7sAW-73" target="33">
          <mxGeometry relative="1" as="geometry">
            <mxPoint x="650" y="620" as="sourcePoint" />
            <mxPoint x="640" y="590" as="targetPoint" />
          </mxGeometry>
        </mxCell>
        <mxCell id="R73__cvtc8PIlCTp7sAW-75" value="no" style="endArrow=open;strokeColor=#FF0000;endFill=1;rounded=0;exitX=1;exitY=0.5;exitDx=0;exitDy=0;" edge="1" parent="1" source="R73__cvtc8PIlCTp7sAW-73">
          <mxGeometry relative="1" as="geometry">
            <mxPoint x="680" y="600" as="sourcePoint" />
            <mxPoint x="840" y="600" as="targetPoint" />
          </mxGeometry>
        </mxCell>
        <mxCell id="R73__cvtc8PIlCTp7sAW-78" value="no" style="edgeStyle=elbowEdgeStyle;elbow=horizontal;align=left;verticalAlign=top;endArrow=open;endSize=8;strokeColor=#FF0000;endFill=1;rounded=0;exitX=0;exitY=0.5;exitDx=0;exitDy=0;" edge="1" parent="1" source="R73__cvtc8PIlCTp7sAW-77">
          <mxGeometry x="-1" relative="1" as="geometry">
            <mxPoint x="260" y="500" as="targetPoint" />
            <mxPoint x="420" y="373" as="sourcePoint" />
            <Array as="points">
              <mxPoint x="330" y="460" />
            </Array>
          </mxGeometry>
        </mxCell>
      </root>
    </mxGraphModel>
  </diagram>
</mxfile>
